<?xml version="1.0" standalone="no"?>
<!DOCTYPE svg PUBLIC "-//W3C//DTD SVG 20010904//EN"
 "http://www.w3.org/TR/2001/REC-SVG-20010904/DTD/svg10.dtd">
<svg version="1.0" xmlns="http://www.w3.org/2000/svg"
 width="512.000000pt" height="512.000000pt" viewBox="0 0 512.000000 512.000000"
 preserveAspectRatio="xMidYMid meet">
<metadata>
Created by potrace 1.14, written by Peter Selinger 2001-2017
</metadata>
<g transform="translate(0.000000,512.000000) scale(0.100000,-0.100000)"
fill="#000000" stroke="none">
<path d="M2948 4085 c-2 -2 -28 -6 -58 -9 -56 -6 -65 -7 -160 -27 -61 -12
-239 -67 -255 -78 -5 -4 -31 -15 -56 -24 -68 -26 -213 -111 -314 -187 -164
-121 -329 -304 -427 -472 l-42 -73 -125 2 c-308 4 -575 -101 -787 -312 -149
-148 -240 -303 -293 -500 -26 -95 -32 -135 -35 -245 -10 -301 103 -588 318
-805 242 -244 584 -360 926 -314 318 43 550 236 664 554 14 39 66 218 115 399
50 181 93 331 96 334 2 3 8 -4 12 -14 4 -10 48 -82 98 -159 51 -77 190 -293
310 -480 120 -187 231 -356 247 -376 48 -63 137 -90 215 -66 43 13 106 71 121
112 16 41 112 394 110 403 -1 4 4 18 10 32 6 14 70 241 143 505 88 322 132
497 132 532 0 67 -40 135 -99 168 -87 49 -211 17 -262 -67 -16 -27 -184 -616
-265 -930 -11 -43 -22 -78 -26 -78 -6 0 -117 166 -133 200 -5 8 -71 112 -147
230 -77 118 -184 284 -238 368 -149 234 -167 258 -216 281 -96 47 -216 9 -264
-82 -16 -32 -25 -63 -188 -657 -132 -481 -142 -514 -181 -596 -34 -69 -112
-152 -168 -178 -135 -64 -351 -59 -510 11 -112 49 -193 111 -271 208 -199 246
-199 613 2 862 170 212 425 302 694 245 179 -38 241 -6 314 163 77 177 254
391 415 502 219 149 448 220 713 221 131 0 217 -11 332 -42 277 -74 539 -263
700 -506 61 -91 135 -236 135 -263 0 -7 4 -17 9 -22 10 -11 45 -153 57 -230
10 -67 12 -302 3 -340 -5 -16 -11 -50 -14 -74 -11 -75 -73 -249 -121 -341 -55
-104 -123 -196 -222 -302 -84 -90 -95 -113 -94 -187 4 -147 171 -238 297 -160
63 39 222 220 298 341 112 177 215 437 233 590 3 23 7 45 9 48 3 4 7 43 11 86
34 391 -57 753 -270 1073 -251 376 -637 625 -1096 708 -72 13 -392 27 -402 18z"/>
</g>
</svg>
