<?xml version="1.0" standalone="no"?>
<!DOCTYPE svg PUBLIC "-//W3C//DTD SVG 20010904//EN"
 "http://www.w3.org/TR/2001/REC-SVG-20010904/DTD/svg10.dtd">
<svg version="1.0" xmlns="http://www.w3.org/2000/svg"
 width="512.000000pt" height="512.000000pt" viewBox="0 0 512.000000 512.000000"
 preserveAspectRatio="xMidYMid meet">
<metadata>
Created by potrace 1.14, written by Peter Selinger 2001-2017
</metadata>
<g transform="translate(0.000000,512.000000) scale(0.100000,-0.100000)"
fill="#000000" stroke="none">
<path d="M2950 4378 c-296 -48 -495 -113 -711 -234 -225 -125 -429 -299 -583
-498 -63 -81 -156 -219 -156 -231 0 -4 -9 -19 -19 -34 -18 -26 -22 -26 -87
-21 -425 36 -856 -155 -1118 -495 -193 -249 -279 -507 -272 -820 8 -360 130
-643 390 -900 183 -181 441 -315 676 -350 25 -4 59 -9 75 -12 17 -2 89 -5 160
-5 463 0 787 224 949 655 14 37 57 183 95 325 39 141 75 271 80 287 5 17 24
84 42 150 26 97 34 116 43 102 13 -22 152 -236 166 -257 14 -21 132 -205 306
-475 274 -426 313 -483 347 -509 96 -73 225 -67 307 16 41 41 54 71 100 236
23 81 47 170 55 197 8 28 21 75 29 105 32 125 96 357 105 385 5 17 22 75 36
130 15 55 40 147 57 205 16 58 32 112 33 120 2 8 26 98 54 200 61 223 62 232
43 295 -37 128 -164 197 -292 159 -55 -16 -123 -74 -142 -122 -9 -24 -51 -169
-123 -432 -12 -47 -41 -152 -64 -235 -23 -82 -44 -157 -46 -166 -2 -9 -22 -84
-45 -165 -24 -82 -43 -155 -43 -161 0 -7 -3 -13 -6 -13 -3 0 -53 73 -111 163
-57 89 -132 205 -166 257 -89 138 -148 231 -197 308 -325 509 -337 526 -406
558 -49 24 -145 24 -193 0 -42 -20 -93 -68 -113 -106 -7 -14 -29 -84 -48 -155
-163 -596 -293 -1066 -318 -1149 -73 -237 -160 -347 -326 -409 -50 -19 -78
-22 -213 -22 -135 0 -165 3 -230 23 -246 77 -422 230 -525 455 -46 102 -68
197 -71 312 -8 277 117 531 341 693 183 133 430 183 657 133 54 -11 112 -21
129 -21 93 0 182 63 220 157 125 313 378 591 679 747 102 52 279 119 350 131
19 3 55 11 80 17 59 14 379 19 450 7 205 -36 375 -94 525 -180 346 -199 598
-526 695 -904 39 -150 42 -177 45 -350 4 -254 -42 -460 -152 -680 -40 -79
-134 -231 -152 -245 -4 -3 -17 -18 -30 -35 -12 -16 -53 -61 -90 -100 -84 -87
-97 -107 -111 -172 -39 -180 151 -331 320 -256 79 35 247 216 369 398 69 104
181 334 221 455 32 98 68 244 76 315 3 22 9 67 13 100 11 79 6 395 -7 465 -6
30 -13 71 -16 90 -9 58 -54 220 -85 305 -216 594 -721 1053 -1331 1210 -182
47 -266 58 -470 60 -107 1 -220 -2 -250 -7z"/>
</g>
</svg>
