<svg xmlns="http://www.w3.org/2000/svg" class="header__logo" width="264.369" height="74.391"><path d="M27.92 37.56h1.47v-.36c0-6.73-2.67-9.22-8.66-9.22-2.12 0-6.26.56-6.26 3.13v2.5H3.59v-4.98c0-8.76 12.35-9.68 17.23-9.68 15.67 0 20.27 8.2 20.27 18.7v17.52a1.84 1.84 0 0 0 2.03 2.02h3.69v9.86H36.3c-4.33 0-6-2.4-6-5.16a20.29 20.29 0 0 1 .1-2.03h-.18s-3.6 8.3-14.2 8.3C7.66 68.16 0 62.9 0 53.5c0-14.75 20.27-15.94 27.92-15.94zm-9.03 21.47c6.26 0 10.69-6.63 10.69-12.34v-1.1h-2.03c-6.08 0-15.76.82-15.76 7.36 0 3.13 2.3 6.08 7.1 6.08zm95.04-21.05h-5.22v-10.4h5.22V18.3c0-15.51 12.77-17.55 19.4-17.55a25.57 25.57 0 0 1 4 .28v10.02a15.08 15.08 0 0 0-2.42-.18c-3.36 0-9.14.83-9.14 7.7v9.01h10.17v10.4h-10.17v29.07h-11.84zm31.86 25.4a6.83 6.83 0 0 0 5.42 2.65c2.24 0 4.3-1.12 4.3-3.29 0-4.4-10.07-3.42-10.07-9.05 0-3.01 2.51-4.55 5.98-4.55 1.5 0 4.93.67 4.93 2.97v1.33h-1.47v-.84c0-1.47-2.17-2.03-3.4-2.03-2.83 0-4.5 1.01-4.5 3 0 4.48 10.07 3.4 10.07 9.17 0 2.8-2.56 4.72-5.88 4.72a7.9 7.9 0 0 1-6.43-3zM162.3 73c1.68 0 2.73-1.5 3.43-3.16l1.26-2.9-6.33-15.21a1.22 1.22 0 0 0-1.33-.84h-.28v-1.33h.24c1.75 0 2.17.32 2.87 2.03l4.97 11.92c.35.84.6 1.65.6 1.65h.06s.25-.8.6-1.65l4.93-11.92c.7-1.71 1.12-2.03 2.87-2.03h.24v1.33h-.28a1.22 1.22 0 0 0-1.33.84l-8.08 19.41a4.8 4.8 0 0 1-4.44 3.25 4.57 4.57 0 0 1-3.5-1.64l.88-1.12a3.73 3.73 0 0 0 2.62 1.36zm16.16-9.62a6.83 6.83 0 0 0 5.42 2.65c2.24 0 4.3-1.12 4.3-3.29 0-4.4-10.07-3.42-10.07-9.05 0-3.01 2.52-4.55 5.98-4.55 1.5 0 4.93.67 4.93 2.97v1.33h-1.47v-.84c0-1.47-2.16-2.03-3.39-2.03-2.83 0-4.51 1.01-4.51 3 0 4.48 10.07 3.4 10.07 9.17 0 2.8-2.55 4.72-5.87 4.72a7.9 7.9 0 0 1-6.44-3zm15.95-12.49h-2.3v-1.33h2.3V44.7h1.47v4.86h4.58v1.33h-4.58v9.72c0 4.62 2.77 5.21 4.16 5.21a4.06 4.06 0 0 0 .8-.07v1.37a4.88 4.88 0 0 1-.87.07c-1.82 0-5.56-.67-5.56-6.47v-9.83zm16.19-1.75c4.76 0 7.14 3.74 7.14 7.97 0 .39-.07.95-.07.95h-14.03c0 5.07 3.43 7.97 7.48 7.97a7.92 7.92 0 0 0 5.43-2.2l.8 1.22a9.53 9.53 0 0 1-6.23 2.42 8.8 8.8 0 0 1-9.02-9.13c0-5.91 4.03-9.2 8.5-9.2zm5.6 7.55c-.17-4.26-2.73-6.19-5.63-6.19a6.8 6.8 0 0 0-6.82 6.2zm5.8-5.03a.69.69 0 0 0-.77-.77h-1.5v-1.33h1.71c1.44 0 2.03.6 2.03 1.92v.98c0 .8-.07 1.44-.07 1.44h.07a7.53 7.53 0 0 1 6.64-4.76c3.5 0 5.14 1.64 5.53 4.75h.07a7.34 7.34 0 0 1 6.64-4.75c4.51 0 5.84 2.65 5.84 6.82v8.98a.68.68 0 0 0 .77.77h1.5v1.33h-1.71c-1.44 0-2.03-.6-2.03-2.03v-8.53c0-3.29-.67-5.98-4.37-5.98-2.9 0-5.39 2.59-6.16 5.32a9.15 9.15 0 0 0-.35 2.69v8.53h-1.47V56.48c0-3-.42-5.98-4.26-5.98-3.12 0-5.56 2.73-6.37 5.63a8.68 8.68 0 0 0-.28 2.38v8.54H222v-15.4zm31.1 11.72a6.83 6.83 0 0 0 5.43 2.65c2.24 0 4.3-1.12 4.3-3.29 0-4.4-10.07-3.42-10.07-9.05 0-3.01 2.52-4.55 5.98-4.55 1.5 0 4.93.67 4.93 2.97v1.33h-1.47v-.84c0-1.47-2.17-2.03-3.4-2.03-2.83 0-4.5 1.01-4.5 3 0 4.48 10.07 3.4 10.07 9.17 0 2.8-2.56 4.72-5.88 4.72a7.9 7.9 0 0 1-6.43-3z" fill="#0f234a"/><path d="M61.78 47.64c0 5.32 4.57 9.61 11.38 9.61 7.46 0 11.94-4.1 11.94-12.12v-7.18H73.9c-7.36 0-12.12 3.26-12.12 9.7z" class="no-fill" fill="none"/><path d="M85.13 45.03c0 8.03-4.48 12.13-11.94 12.13-6.8 0-11.38-4.29-11.38-9.6 0-6.44 4.76-9.7 12.13-9.7h4c-8.9 0-15.18-2.82-18.48-5.5-.3-.24-.59-.5-.89-.76-5.47 3.09-9.07 9.88-9.07 16.7 0 11.2 9.32 19.87 23.69 19.87 14.92 0 23.78-8.96 23.78-22.48v-7.84H85.13z" fill="#7a3086"/><path d="M77.53 27.7H74.6c-7.92 0-10.07-4.94-10.07-8.77 0-5.78 4.57-8.86 10.17-8.86a20.93 20.93 0 0 1 4.38.56l2.9-9.51A41.55 41.55 0 0 0 73.28 0c-11.47 0-20.9 5.7-20.9 17.44 0 7.63 3.14 11.75 6.19 14.45l.89-.47a43.12 43.12 0 0 1 18.06-3.72z" fill="#00afe5"/><path d="M77.49 27.57a43.13 43.13 0 0 0-18.07 3.73c-.3.14-.6.3-.89.47.3.26.6.52.9.75 3.3 2.69 9.58 5.5 18.47 5.5h26.96V27.57z" fill="#363080"/></svg>