<svg xmlns="http://www.w3.org/2000/svg" width="100" height="29"><path d="M77.293.037c-1.332 0-2.355 1.004-2.355 2.355v23.916a2.355 2.355 0 0 0 2.355 2.355H99.99v-5.727H82.207v-6.123h14.749V11.32H82.207V5.585H99.79V.037zM17.091 13.483H12.46c-.806 0-1.307.878-.896 1.572l8.801 13.608h8.661l-7.843-10.604c3.792-.494 6.939-2.486 6.939-8.766 0-6.61-2.848-9.256-9.835-9.256H2.365C1.034.037.01 1.041.01 2.392v26.271h7.525V5.484H17.2c2.84 0 3.931 1.307 3.931 3.949 0 2.254-1.218 4.05-4.04 4.05m27.792 13.984a1.814 1.814 0 0 1-1.705 1.196h-4.524a1.812 1.812 0 0 1-1.763-1.391L30.381.037h7.71l3.579 17.664 5.626-16.439A1.812 1.812 0 0 1 49.011.037h3.962c.775 0 1.464.492 1.715 1.225l5.626 16.439L63.893.037h7.71l-6.509 27.235a1.814 1.814 0 0 1-1.764 1.391h-4.523a1.814 1.814 0 0 1-1.706-1.196l-6.109-16.876z" style="fill:#1d4276;fill-opacity:1"/></svg>