<?xml version="1.0" encoding="UTF-8" standalone="no"?>
<!DOCTYPE svg PUBLIC "-//W3C//DTD SVG 1.1//EN" "http://www.w3.org/Graphics/SVG/1.1/DTD/svg11.dtd">
<svg width="100%" height="100%" viewBox="0 0 2105 246" version="1.1" xmlns="http://www.w3.org/2000/svg" xmlns:xlink="http://www.w3.org/1999/xlink" xml:space="preserve" xmlns:serif="http://www.serif.com/" style="fill-rule:evenodd;clip-rule:evenodd;stroke-linejoin:round;stroke-miterlimit:2;">
    <g transform="matrix(4.16667,0,0,4.16667,0,0)">
        <path d="M5.315,39.51C5.274,38.452 5.172,37.516 5.009,36.7C4.846,35.886 4.561,35.164 4.154,34.531C3.746,33.9 3.207,33.32 2.535,32.79C1.863,32.261 1.018,31.751 0,31.263L0,28.452C1.018,27.963 1.863,27.465 2.535,26.955C3.207,26.446 3.746,25.866 4.154,25.214C4.561,24.563 4.846,23.83 5.009,23.014C5.172,22.2 5.274,21.264 5.315,20.204L5.498,14.095C5.579,12.018 5.824,10.154 6.232,8.504C6.638,6.855 7.31,5.46 8.248,4.319C9.184,3.179 10.437,2.303 12.005,1.692C13.572,1.081 15.579,0.776 18.023,0.776L19.214,0.776C19.601,0.776 20.141,0.817 20.833,0.898C21.2,2.568 21.383,3.974 21.383,5.114C21.383,6.335 21.2,7.762 20.833,9.39L18.94,9.39C18.124,9.39 17.474,9.533 16.985,9.818C16.495,10.104 16.129,10.542 15.885,11.131C15.641,11.722 15.488,12.466 15.427,13.361C15.365,14.258 15.335,15.337 15.335,16.6C15.335,18.799 15.253,20.631 15.091,22.098C14.927,23.564 14.683,24.786 14.358,25.764C14.03,26.741 13.624,27.546 13.136,28.177C12.647,28.809 12.075,29.369 11.425,29.857C12.075,30.346 12.647,30.907 13.136,31.538C13.624,32.169 14.03,32.983 14.358,33.981C14.683,34.98 14.927,36.211 15.091,37.678C15.253,39.144 15.335,40.977 15.335,43.176C15.335,44.439 15.365,45.519 15.427,46.414C15.488,47.311 15.641,48.055 15.885,48.645C16.129,49.234 16.495,49.672 16.985,49.958C17.474,50.243 18.124,50.385 18.94,50.385L20.833,50.385C21.2,52.055 21.383,53.481 21.383,54.663C21.383,55.844 21.2,57.248 20.833,58.878C20.141,58.959 19.601,59 19.214,59L18.023,59C15.579,59 13.572,58.695 12.005,58.084C10.437,57.473 9.184,56.597 8.248,55.457C7.31,54.316 6.638,52.921 6.232,51.271C5.824,49.622 5.579,47.759 5.498,45.681L5.315,39.51Z" style="fill:rgb(197,49,80);fill-rule:nonzero;"/>
        <path d="M485.074,50.385C485.888,50.385 486.54,50.243 487.029,49.958C487.517,49.672 487.883,49.234 488.129,48.645C488.373,48.055 488.525,47.311 488.587,46.414C488.647,45.519 488.678,44.439 488.678,43.176C488.678,40.977 488.759,39.144 488.923,37.678C489.085,36.211 489.329,34.98 489.656,33.981C489.982,32.983 490.389,32.169 490.878,31.538C491.367,30.907 491.936,30.346 492.589,29.857C491.936,29.369 491.367,28.809 490.878,28.177C490.389,27.546 489.982,26.741 489.656,25.764C489.329,24.786 489.085,23.564 488.923,22.098C488.759,20.631 488.678,18.799 488.678,16.6C488.678,15.337 488.647,14.258 488.587,13.361C488.525,12.466 488.373,11.722 488.129,11.131C487.883,10.542 487.517,10.104 487.029,9.818C486.54,9.533 485.888,9.39 485.074,9.39L483.179,9.39C482.813,7.762 482.63,6.335 482.63,5.114C482.63,3.974 482.813,2.568 483.179,0.898C483.872,0.817 484.411,0.776 484.799,0.776L485.99,0.776C488.433,0.776 490.44,1.081 492.008,1.692C493.575,2.303 494.828,3.179 495.765,4.319C496.702,5.46 497.374,6.855 497.781,8.504C498.188,10.154 498.432,12.018 498.514,14.095L498.698,20.204C498.738,21.264 498.841,22.2 499.004,23.014C499.166,23.83 499.452,24.563 499.859,25.214C500.265,25.866 500.806,26.446 501.478,26.955C502.15,27.465 502.995,27.963 504.013,28.452L504.013,31.263C502.995,31.751 502.15,32.261 501.478,32.79C500.806,33.32 500.265,33.9 499.859,34.531C499.452,35.164 499.166,35.886 499.004,36.7C498.841,37.516 498.738,38.452 498.698,39.51L498.514,45.681C498.432,47.759 498.188,49.622 497.781,51.271C497.374,52.921 496.702,54.316 495.765,55.457C494.828,56.597 493.575,57.473 492.008,58.084C490.44,58.695 488.433,59 485.99,59L484.799,59C484.411,59 483.872,58.959 483.179,58.878C482.813,57.248 482.63,55.844 482.63,54.663C482.63,53.481 482.813,52.055 483.179,50.385L485.074,50.385Z" style="fill:rgb(197,49,80);fill-rule:nonzero;"/>
        <path d="M44.464,28.741C44.667,28.823 45.014,28.884 45.503,28.924C45.991,28.965 46.5,28.985 47.03,28.985C48.78,28.985 50.207,28.476 51.307,27.458C52.406,26.44 52.956,24.892 52.956,22.814C52.956,21.592 52.782,20.564 52.437,19.729C52.09,18.895 51.612,18.223 51.001,17.713C50.39,17.204 49.677,16.848 48.863,16.644C48.048,16.44 47.192,16.338 46.297,16.338L45.442,16.338C45.114,16.338 44.789,16.359 44.464,16.399L44.464,28.741ZM33.895,8.09C34.83,7.968 36.267,7.795 38.201,7.571C40.135,7.348 42.57,7.235 45.503,7.235C47.661,7.235 49.84,7.44 52.039,7.846C54.239,8.253 56.225,9.018 57.996,10.137C59.769,11.258 61.204,12.835 62.304,14.872C63.404,16.909 63.953,19.556 63.953,22.814C63.953,25.707 63.515,28.11 62.64,30.024C61.764,31.939 60.603,33.466 59.157,34.606C57.711,35.747 56.062,36.561 54.208,37.05C52.355,37.539 50.451,37.783 48.496,37.783C47.722,37.783 46.938,37.752 46.144,37.691C45.35,37.63 44.789,37.56 44.464,37.477L44.464,51.712C43.405,51.916 42.447,52.058 41.592,52.14C40.737,52.222 39.943,52.262 39.209,52.262C37.783,52.262 36.012,52.08 33.895,51.712L33.895,8.09Z" style="fill:rgb(64,63,65);fill-rule:nonzero;"/>
        <path d="M87.719,43.282C92.932,43.282 95.539,38.883 95.539,30.085C95.539,21.206 92.952,16.766 87.781,16.766C82.486,16.766 79.838,21.206 79.838,30.085C79.838,34.525 80.48,37.834 81.762,40.013C83.045,42.192 85.031,43.282 87.719,43.282ZM87.719,52.63C84.379,52.63 81.496,52.069 79.074,50.949C76.651,49.829 74.654,48.261 73.087,46.245C71.518,44.229 70.358,41.846 69.604,39.097C68.85,36.347 68.474,33.344 68.474,30.085C68.474,26.827 68.85,23.802 69.604,21.012C70.358,18.223 71.518,15.809 73.087,13.772C74.654,11.736 76.651,10.137 79.074,8.976C81.496,7.815 84.379,7.235 87.719,7.235C91.059,7.235 93.93,7.815 96.334,8.976C98.737,10.137 100.722,11.736 102.291,13.772C103.858,15.809 105.019,18.223 105.774,21.012C106.527,23.802 106.904,26.827 106.904,30.085C106.904,33.344 106.527,36.347 105.774,39.097C105.019,41.846 103.858,44.229 102.291,46.245C100.722,48.261 98.737,49.829 96.334,50.949C93.93,52.069 91.059,52.63 87.719,52.63Z" style="fill:rgb(64,63,65);fill-rule:nonzero;"/>
        <path d="M109.592,8.151C110.732,7.948 111.832,7.806 112.891,7.724C113.95,7.643 114.886,7.602 115.702,7.602C116.475,7.602 117.28,7.632 118.115,7.693C118.95,7.754 119.896,7.887 120.956,8.09L126.027,36.011C127.045,31.531 128.063,26.857 129.082,21.989C130.099,17.123 131.098,12.489 132.075,8.09C132.809,7.968 133.623,7.857 134.519,7.754C135.415,7.653 136.331,7.602 137.268,7.602C138.083,7.602 138.918,7.653 139.774,7.754C140.629,7.857 141.362,7.968 141.973,8.09L148.327,36.316L153.398,8.09C154.457,7.887 155.353,7.754 156.087,7.693C156.819,7.632 157.572,7.602 158.347,7.602C159.161,7.602 160.016,7.632 160.913,7.693C161.808,7.754 162.827,7.887 163.967,8.09L153.46,51.712C152.848,51.834 152.063,51.958 151.107,52.08C150.149,52.202 149.1,52.262 147.961,52.262C146.82,52.262 145.71,52.191 144.631,52.048C143.55,51.906 142.829,51.794 142.462,51.712L136.658,26.419L130.487,51.712C130.119,51.794 129.438,51.906 128.44,52.048C127.441,52.191 126.373,52.262 125.232,52.262C124.092,52.262 123.073,52.202 122.178,52.08C121.282,51.958 120.528,51.834 119.918,51.712L109.592,8.151Z" style="fill:rgb(64,63,65);fill-rule:nonzero;"/>
        <path d="M167.817,7.968L193.599,7.968C193.761,8.864 193.883,9.7 193.966,10.473C194.047,11.248 194.088,11.98 194.088,12.672C194.088,14.017 193.924,15.626 193.599,17.499L178.631,17.499L178.631,24.219L190.423,24.219C190.789,26.012 190.972,27.601 190.972,28.985C190.972,30.412 190.789,32 190.423,33.75L178.631,33.75L178.631,42.426L193.966,42.426C194.333,44.137 194.515,45.686 194.515,47.07C194.515,48.577 194.333,50.186 193.966,51.896L167.817,51.896L167.817,7.968Z" style="fill:rgb(64,63,65);fill-rule:nonzero;"/>
        <path d="M200.013,8.09C202.008,7.887 203.852,7.693 205.543,7.51C207.232,7.327 209.014,7.235 210.888,7.235C213.129,7.235 215.369,7.449 217.609,7.877C219.849,8.304 221.844,9.048 223.596,10.107C225.347,11.166 226.774,12.611 227.874,14.444C228.973,16.277 229.523,18.599 229.523,21.409C229.523,22.917 229.349,24.271 229.004,25.472C228.657,26.674 228.21,27.743 227.66,28.68C227.11,29.617 226.499,30.432 225.827,31.124C225.155,31.817 224.492,32.407 223.841,32.895L233.372,51.712C232.394,51.876 231.325,51.998 230.165,52.08C229.004,52.161 227.955,52.202 227.018,52.202C226.203,52.202 225.256,52.161 224.176,52.08C223.097,51.998 222.15,51.876 221.336,51.712L212.66,31.734L213.211,31.429C213.699,31.185 214.238,30.778 214.829,30.207C215.42,29.637 215.969,28.955 216.479,28.16C216.988,27.366 217.416,26.48 217.762,25.503C218.107,24.525 218.281,23.507 218.281,22.448C218.281,20.412 217.711,18.925 216.571,17.988C215.43,17.051 214.024,16.583 212.355,16.583C211.947,16.583 211.6,16.604 211.316,16.644C211.031,16.685 210.847,16.726 210.766,16.766L210.766,51.712C208.607,52.08 206.836,52.262 205.451,52.262C203.944,52.262 202.131,52.08 200.013,51.712L200.013,8.09Z" style="fill:rgb(64,63,65);fill-rule:nonzero;"/>
        <path d="M237.832,41.388C238.769,41.265 239.665,41.164 240.52,41.083C241.376,41.001 242.21,40.96 243.026,40.96C243.84,40.96 244.674,41.001 245.531,41.083C246.385,41.164 247.281,41.265 248.218,41.388C248.381,42.325 248.503,43.22 248.585,44.076C248.667,44.931 248.708,45.767 248.708,46.581C248.708,47.396 248.667,48.23 248.585,49.086C248.503,49.94 248.381,50.837 248.218,51.774C247.281,51.936 246.385,52.058 245.531,52.14C244.674,52.222 243.84,52.262 243.026,52.262C242.21,52.262 241.376,52.222 240.52,52.14C239.665,52.058 238.769,51.936 237.832,51.774C237.669,50.837 237.547,49.94 237.466,49.086C237.383,48.23 237.343,47.396 237.343,46.581C237.343,45.767 237.383,44.931 237.466,44.076C237.547,43.22 237.669,42.325 237.832,41.388Z" style="fill:rgb(197,49,80);fill-rule:nonzero;"/>
        <path d="M282.798,41.388C284.142,44.32 285.038,47.334 285.487,50.43C284.305,50.878 283.205,51.246 282.187,51.53C281.169,51.815 280.191,52.028 279.255,52.17C278.316,52.313 277.391,52.416 276.475,52.477C275.559,52.538 274.611,52.568 273.633,52.568C270.172,52.568 267.128,52.007 264.5,50.888C261.872,49.769 259.673,48.211 257.901,46.214C256.13,44.219 254.796,41.836 253.899,39.066C253.004,36.296 252.555,33.283 252.555,30.024C252.555,26.766 253.024,23.741 253.961,20.951C254.897,18.162 256.252,15.748 258.023,13.711C259.795,11.675 261.984,10.086 264.591,8.946C267.197,7.806 270.151,7.235 273.45,7.235C275.406,7.235 277.258,7.378 279.009,7.663C280.761,7.948 282.716,8.518 284.876,9.374C284.794,11.043 284.488,12.663 283.959,14.23C283.428,15.799 282.879,17.173 282.309,18.355C281.494,18.07 280.752,17.825 280.08,17.621C279.407,17.418 278.765,17.254 278.154,17.132C277.544,17.01 276.933,16.918 276.322,16.857C275.711,16.796 275.059,16.766 274.366,16.766C271.068,16.766 268.51,17.876 266.7,20.095C264.886,22.316 263.98,25.625 263.98,30.024C263.98,38.659 267.605,42.976 274.856,42.976C276.159,42.976 277.391,42.854 278.551,42.61C279.714,42.365 281.128,41.959 282.798,41.388Z" style="fill:rgb(64,63,65);fill-rule:nonzero;"/>
        <path d="M305.953,43.282C311.167,43.282 313.774,38.883 313.774,30.085C313.774,21.206 311.186,16.766 306.014,16.766C300.719,16.766 298.073,21.206 298.073,30.085C298.073,34.525 298.714,37.834 299.997,40.013C301.279,42.192 303.265,43.282 305.953,43.282ZM305.953,52.63C302.614,52.63 299.731,52.069 297.308,50.949C294.884,49.829 292.888,48.261 291.321,46.245C289.753,44.229 288.592,41.846 287.839,39.097C287.085,36.347 286.709,33.344 286.709,30.085C286.709,26.827 287.085,23.802 287.839,21.012C288.592,18.223 289.753,15.809 291.321,13.772C292.888,11.736 294.884,10.137 297.308,8.976C299.731,7.815 302.614,7.235 305.953,7.235C309.293,7.235 312.165,7.815 314.568,8.976C316.971,10.137 318.957,11.736 320.524,13.772C322.092,15.809 323.254,18.223 324.008,21.012C324.76,23.802 325.137,26.827 325.137,30.085C325.137,33.344 324.76,36.347 324.008,39.097C323.254,41.846 322.092,44.229 320.524,46.245C318.957,48.261 316.971,49.829 314.568,50.949C312.165,52.069 309.293,52.63 305.953,52.63Z" style="fill:rgb(64,63,65);fill-rule:nonzero;"/>
        <path d="M342.123,43.037C342.407,43.078 342.734,43.098 343.1,43.098L344.261,43.098C345.85,43.098 347.346,42.906 348.752,42.518C350.157,42.131 351.369,41.449 352.386,40.471C353.405,39.494 354.21,38.17 354.8,36.5C355.39,34.83 355.686,32.692 355.686,30.085C355.686,27.519 355.381,25.38 354.77,23.67C354.159,21.959 353.354,20.605 352.356,19.607C351.358,18.609 350.188,17.896 348.843,17.468C347.499,17.041 346.094,16.827 344.629,16.827C343.812,16.827 343.222,16.837 342.856,16.857C342.489,16.878 342.245,16.888 342.123,16.888L342.123,43.037ZM331.309,8.09C331.92,8.009 332.693,7.918 333.631,7.815C334.567,7.714 335.586,7.623 336.685,7.541C337.785,7.46 338.915,7.388 340.077,7.327C341.237,7.266 342.367,7.235 343.466,7.235C351.165,7.235 357.009,9.16 361.002,13.008C364.993,16.857 366.989,22.591 366.989,30.207C366.989,37.946 364.952,43.618 360.88,47.222C356.805,50.827 350.778,52.63 342.795,52.63C340.758,52.63 338.793,52.538 336.899,52.354C335.006,52.17 333.141,51.958 331.309,51.712L331.309,8.09Z" style="fill:rgb(64,63,65);fill-rule:nonzero;"/>
        <path d="M373.16,7.968L398.942,7.968C399.104,8.864 399.227,9.7 399.308,10.473C399.39,11.248 399.431,11.98 399.431,12.672C399.431,14.017 399.268,15.626 398.942,17.499L383.973,17.499L383.973,24.219L395.765,24.219C396.132,26.012 396.315,27.601 396.315,28.985C396.315,30.412 396.132,32 395.765,33.75L383.973,33.75L383.973,42.426L399.308,42.426C399.675,44.137 399.859,45.686 399.859,47.07C399.859,48.577 399.675,50.186 399.308,51.896L373.16,51.896L373.16,7.968Z" style="fill:rgb(64,63,65);fill-rule:nonzero;"/>
        <path d="M405.357,8.09C407.352,7.887 409.196,7.693 410.886,7.51C412.576,7.327 414.358,7.235 416.232,7.235C418.471,7.235 420.712,7.449 422.953,7.877C425.192,8.304 427.188,9.048 428.94,10.107C430.69,11.166 432.117,12.611 433.216,14.444C434.316,16.277 434.866,18.599 434.866,21.409C434.866,22.917 434.692,24.271 434.347,25.472C434.001,26.674 433.552,27.743 433.003,28.68C432.453,29.617 431.842,30.432 431.17,31.124C430.498,31.817 429.836,32.407 429.184,32.895L438.716,51.712C437.738,51.876 436.669,51.998 435.508,52.08C434.347,52.161 433.298,52.202 432.362,52.202C431.547,52.202 430.598,52.161 429.52,52.08C428.441,51.998 427.494,51.876 426.679,51.712L418.005,31.734L418.554,31.429C419.043,31.185 419.582,30.778 420.173,30.207C420.762,29.637 421.312,28.955 421.822,28.16C422.332,27.366 422.759,26.48 423.105,25.503C423.451,24.525 423.625,23.507 423.625,22.448C423.625,20.412 423.054,18.925 421.914,17.988C420.773,17.051 419.368,16.583 417.699,16.583C417.291,16.583 416.944,16.604 416.66,16.644C416.374,16.685 416.191,16.726 416.11,16.766L416.11,51.712C413.951,52.08 412.178,52.262 410.795,52.262C409.288,52.262 407.474,52.08 405.357,51.712L405.357,8.09Z" style="fill:rgb(64,63,65);fill-rule:nonzero;"/>
        <path d="M452.095,33.262C450.63,32.733 449.294,32.101 448.093,31.368C446.891,30.635 445.864,29.77 445.008,28.771C444.152,27.774 443.49,26.623 443.022,25.319C442.553,24.016 442.32,22.489 442.32,20.737C442.32,18.579 442.686,16.665 443.42,14.994C444.152,13.324 445.181,11.909 446.506,10.748C447.828,9.587 449.426,8.711 451.301,8.121C453.174,7.531 455.272,7.235 457.593,7.235C459.672,7.235 461.676,7.44 463.612,7.846C465.546,8.253 467.613,8.844 469.813,9.618C469.65,10.921 469.355,12.357 468.927,13.925C468.5,15.493 467.96,16.97 467.308,18.355C466.249,17.906 465.007,17.438 463.582,16.949C462.155,16.46 460.383,16.216 458.265,16.216C457.614,16.216 456.992,16.277 456.402,16.399C455.811,16.521 455.282,16.715 454.814,16.98C454.345,17.245 453.967,17.611 453.683,18.08C453.398,18.548 453.256,19.128 453.256,19.82C453.256,21.002 453.642,21.878 454.417,22.448C455.19,23.019 456.106,23.507 457.166,23.914L460.099,25.075C461.809,25.768 463.346,26.471 464.712,27.183C466.076,27.896 467.247,28.751 468.224,29.749C469.203,30.748 469.956,31.948 470.485,33.353C471.013,34.759 471.279,36.46 471.279,38.455C471.279,40.614 470.902,42.559 470.149,44.29C469.395,46.022 468.286,47.507 466.819,48.75C465.353,49.992 463.55,50.949 461.413,51.622C459.274,52.293 456.82,52.63 454.049,52.63C451.524,52.63 449.294,52.425 447.36,52.018C445.425,51.612 443.338,50.98 441.098,50.125C441.26,48.699 441.546,47.182 441.954,45.573C442.36,43.964 442.848,42.325 443.42,40.654C447.167,42.284 450.424,43.098 453.195,43.098C455.272,43.098 456.891,42.783 458.051,42.151C459.214,41.52 459.794,40.431 459.794,38.883C459.794,38.232 459.672,37.671 459.427,37.203C459.182,36.735 458.856,36.338 458.449,36.011C458.042,35.686 457.583,35.411 457.075,35.187C456.565,34.963 456.046,34.749 455.517,34.545L452.095,33.262Z" style="fill:rgb(64,63,65);fill-rule:nonzero;"/>
    </g>
</svg>
